<svg xmlns="http://www.w3.org/2000/svg" width="80" height="80"><path style="stroke:none;fill-rule:nonzero;fill:#000;fill-opacity:1" d="M5.723 66.48c-.035-.003-.149-.02-.258-.027a6.075 6.075 0 0 1-2.836-1.086 6.334 6.334 0 0 1-2.45-3.648 6.522 6.522 0 0 1-.109-2.477c.328-2.172 1.766-4.031 3.754-4.867a6.07 6.07 0 0 1 1.57-.422 7.988 7.988 0 0 1 1.434 0c.688.094 1.27.27 1.871.559.66.32 1.117.648 1.668 1.203.485.48.781.887 1.13 1.52l.073.136-.261.191c-.36.266-1.204.868-1.477 1.055l-.227.156-.093-.203a3.187 3.187 0 0 0-.332-.597 3.63 3.63 0 0 0-2.301-1.543 4.084 4.084 0 0 0-1.57.027 4.042 4.042 0 0 0-1.477.711c-.168.133-.48.441-.617.613a3.892 3.892 0 0 0-.758 3.285c.086.407.316.942.55 1.293.63.938 1.59 1.54 2.68 1.672.192.024.657.024.848 0A3.74 3.74 0 0 0 9 62.648c.18-.226.305-.421.445-.699.063-.12.121-.222.125-.222.008 0 .453.316.989.699l.976.695-.101.188a5.995 5.995 0 0 1-.887 1.222 5.826 5.826 0 0 1-1.813 1.348 6 6 0 0 1-1.953.574c-.152.02-.949.04-1.058.027Zm8.336-6.34v-6.105h2.367v4.383h6.183v-4.383h2.368v12.207h-2.368v-5.37h-6.183v5.37h-2.367Zm13.308 5.02c.266-.594 1.48-3.34 2.707-6.101l2.223-5.024h3.32l2.692 6.028c1.48 3.316 2.707 6.062 2.722 6.105l.035.074H38.23l-1.093-2.422-3.168.008-3.164.004-.543 1.203-.54 1.207h-2.835Zm8.77-3.8c-.012-.044-2.16-4.848-2.168-4.848-.008 0-2.051 4.765-2.082 4.855-.004.012.812.016 2.125.016 1.812 0 2.129-.004 2.125-.024Zm6.84-1.22v-6.105h3.328l5.21 7.32.008-7.32h2.387v12.207l-1.914-.008-3.305-4.59a884.528 884.528 0 0 0-3.316-4.585c-.008 0-.016 2.066-.016 4.59v4.593h-2.382Zm15.242 0v-6.105h8.531v2.457h-6.145v2.438h5.688v2.453h-5.688v2.437h7.028v2.422h-9.414Zm12.754 0v-6.105h2.386v9.785H80v2.422h-9.027Zm-40.864-9.21c-2.55-.117-5.386-.89-7.672-2.09-1.757-.922-3.148-1.953-4.605-3.414-1.145-1.145-1.984-2.196-2.7-3.371l-.312-.516.442-.234c.863-.457 4.797-2.473 4.828-2.473.02 0 .18.223.363.492 2.05 3.055 5.258 5.043 9.012 5.582.656.098 2.629.082 3.344-.023a15.926 15.926 0 0 0 2.351-.535c.04-.016-.035-.137-.207-.34-1.344-1.582-2.566-3.754-3.254-5.774a18.646 18.646 0 0 1-.254-11.265 18.566 18.566 0 0 1 3.282-6.324c.218-.274.398-.512.398-.532 0-.074-1.14-.375-1.887-.504-1.156-.195-2.96-.218-4.004-.054-1.757.28-3.539.937-4.93 1.82a13.014 13.014 0 0 0-3.878 3.781l-.453.68-.582-.305c-.317-.168-1.504-.781-2.633-1.363-1.13-.586-2.059-1.063-2.063-1.066-.02-.02.692-1.141.98-1.563.884-1.27 2.454-2.953 3.614-3.871 3.031-2.41 6.402-3.766 10.2-4.102.702-.062 2.448-.066 3.128-.004 2.406.223 4.473.81 6.606 1.872l1.02.507.343-.195c.55-.312 1.531-.766 2.277-1.05 2.086-.801 4.192-1.18 6.516-1.18 1.621 0 2.976.16 4.445.523 3.32.82 6.153 2.399 8.59 4.777 1.324 1.293 2.36 2.614 3.2 4.067l.124.222-2.062 1.063c-1.137.586-2.324 1.203-2.64 1.367l-.575.3-.438-.655c-2.144-3.235-5.652-5.34-9.488-5.696-1.137-.109-2.828-.011-3.851.223-.528.117-1.387.363-1.387.395 0 .015.14.203.312.41 2.2 2.703 3.575 5.992 4.02 9.625.105.867.117 3.082.023 3.941-.402 3.629-1.773 6.973-3.96 9.668-.497.61-.473.57-.317.629.074.031.43.129.781.219 1.805.457 3.742.52 5.567.183 3.312-.613 6.297-2.57 8.218-5.394.176-.266.34-.496.356-.52.02-.02.46.176.984.438 1.035.52 4.274 2.195 4.309 2.23.058.059-.973 1.59-1.606 2.387-.601.754-2.172 2.324-2.925 2.922-2.711 2.148-5.758 3.465-9.114 3.933-3.851.54-7.93-.183-11.25-1.992l-.468-.254-.582.309c-2.883 1.523-6.188 2.25-9.536 2.094Zm10.758-10.594c1.61-1.988 2.61-4.398 2.856-6.871.086-.832.035-2.52-.094-3.278-.356-2.078-1.117-3.859-2.34-5.488-.234-.304-.57-.715-.75-.91l-.328-.352-.3.329c-.403.433-1.071 1.32-1.407 1.863-1.707 2.762-2.266 6.156-1.543 9.387.457 2.03 1.504 4.078 2.914 5.695l.324.371.14-.133c.079-.074.317-.351.528-.613Zm0 0"/></svg>