<svg xmlns="http://www.w3.org/2000/svg" width="80" height="80"><path style="stroke:none;fill-rule:evenodd;fill:transparent;fill-opacity:1" d="M0 0h79.898v79.898H0Zm0 0"/><path style="stroke:none;fill-rule:evenodd;fill:#000;fill-opacity:1" d="M1.176 22.309h8.242c1.977 0 3.914.144 5.832.457 1.902.293 3.695 1.132 5.375 2.484 1.574 1.336 2.797 3.035 3.676 5.102.894 2.066 1.39 4.187 1.46 6.378.04.149.055.313.055.477v.805a18.001 18.001 0 0 1-1.425 6.617c-.875 2.121-2.176 3.86-3.895 5.226-1.516 1.118-3.125 1.833-4.86 2.16-1.718.348-3.491.532-5.284.602H1.176Zm6.031 24.843c.203 0 .422 0 .66.02.235.016.492.016.746.016h.496c.176.039.352.054.532.054h.492c.293 0 .586-.015.879-.035.293 0 .582-.035.894-.055a14.174 14.174 0 0 0 2.614-.476c.84-.254 1.59-.637 2.21-1.149.97-.824 1.704-1.941 2.196-3.328.492-1.39.75-2.836.77-4.332v-.62a13.745 13.745 0 0 0-.75-4.298c-.477-1.39-1.192-2.523-2.122-3.402a5.456 5.456 0 0 0-2.36-1.317 12.552 12.552 0 0 0-2.741-.402 4.123 4.123 0 0 0-.621-.055H7.207Zm35.594 4.973-1.848-2.176a9.976 9.976 0 0 1-2.723 1.793 9.34 9.34 0 0 1-3.144.84 2.34 2.34 0 0 1-.328.035h-.328c-.239 0-.457-.015-.696-.035-.238-.02-.457-.055-.695-.074a9.923 9.923 0 0 1-1.371-.383 7.192 7.192 0 0 1-1.297-.621c-.75-.512-1.336-1.188-1.793-2.012a6.81 6.81 0 0 1-.82-2.578c-.02-.11-.02-.219-.02-.312v-.512c.02-.09.02-.18.02-.274 0-.035.015-.054.015-.07.02-.039.02-.059.02-.113 0-.035.02-.09.02-.164.015-.055.015-.11.015-.145.238-1.3.785-2.379 1.664-3.238.88-.86 1.848-1.61 2.89-2.285a10.57 10.57 0 0 1-1.628-2.246 5.06 5.06 0 0 1-.656-2.47c0-.163 0-.327.035-.51.02-.165.035-.348.055-.493.035-.129.054-.238.093-.348.035-.129.07-.238.09-.347.363-1.153 1.078-1.977 2.121-2.504a7.192 7.192 0 0 1 3.328-.805 7.22 7.22 0 0 1 4.055 1.207c1.227.785 1.848 1.973 1.848 3.508v.383a4.278 4.278 0 0 1-1.078 2.508c-.618.68-1.29 1.312-2.012 1.882-.164.09-.328.18-.473.309-.148.11-.293.219-.441.313l3.71 4.332c.204-.184.387-.368.567-.551.184-.18.348-.364.512-.567.387-.363.75-.746 1.117-1.132.363-.403.71-.786 1.043-1.188l2.465 2.613c-.274.293-.567.586-.84.88-.277.292-.55.593-.82.894a18.65 18.65 0 0 0-.88.879l-.823.879 4.058 4.898Zm-10.531-4.55c.238.308.476.566.695.765.238.219.476.367.73.496.239.125.457.238.696.289.238.059.457.094.695.094a3.443 3.443 0 0 0 1.371-.293 7.445 7.445 0 0 0 2.23-1.629l-4.148-4.953c-.094.054-.184.129-.293.183-.094.055-.164.13-.238.184-.45.39-.867.816-1.242 1.277-.403.477-.68.969-.844 1.48-.035.13-.07.259-.09.387-.035.125-.035.274-.035.403 0 .238.035.457.125.676.094.218.223.437.348.64Zm3.328-9.509a.243.243 0 0 0 .074-.054c.035-.02.055-.02.11-.055.019-.02.054-.035.073-.074.016-.016.036-.016.07-.016.458-.332.88-.68 1.282-1.023.383-.367.64-.844.77-1.41v-.422c0-.602-.223-1.094-.641-1.461a2.51 2.51 0 0 0-1.356-.656h-.472c-.367.035-.735.199-1.063.472-.328.258-.53.66-.566 1.192 0 .015-.02.054-.02.09-.015.035-.015.074-.015.128 0 .016-.02.035-.02.07-.02.04-.02.075-.02.13 0 .457.13.898.387 1.28.254.403.528.786.82 1.153.13.11.22.219.313.328Zm43.125-1.957v1.008c0 2.742-.457 5.301-1.371 7.696-.915 2.394-2.668 4.332-5.32 5.812-.84.547-1.755.95-2.778 1.262a19.77 19.77 0 0 1-3.016.64c-.367.02-.715.055-1.043.075-.347 0-.675.015-1.004.015h-.586c-.199 0-.382-.015-.585-.054-2.45-.145-4.79-.82-7.075-2.012-2.265-1.168-4.113-2.758-5.504-4.75a15.85 15.85 0 0 1-1.664-3.422 17.383 17.383 0 0 1-.84-3.672c-.015-.238-.054-.512-.07-.77 0-.273-.02-.546-.02-.82 0-2.91.75-5.668 2.266-8.3 1.52-2.633 3.657-4.626 6.418-5.981.582-.29 1.188-.527 1.809-.711a27.024 27.024 0 0 1 1.902-.531 16.33 16.33 0 0 1 1.848-.274 15.11 15.11 0 0 1 1.808-.09h.438c2.379.055 4.68.622 6.93 1.66a17.678 17.678 0 0 1 5.793 4.391l-4.387 3.2c-1.207-1.192-2.469-2.106-3.82-2.762a9.983 9.983 0 0 0-4.313-.969c-.508.004-1.016.035-1.52.09a18.78 18.78 0 0 0-1.609.293c-2.246.695-3.93 1.992-5.082 3.894-1.133 1.918-1.7 3.93-1.7 6.09 0 .145 0 .309.02.492.016.164.055.328.07.493 0 .093.02.183.04.257.02.07.02.164.02.254a.892.892 0 0 1 .07.239c.02.093.02.183.02.238.402 2.36 1.405 4.222 3.054 5.558 1.644 1.332 3.418 2.157 5.336 2.43.254.074.547.11.84.129.293.02.566.02.824.02 1.828 0 3.437-.497 4.879-1.465 1.426-.985 2.14-2.375 2.14-4.203l.09-.204h-7.457V36.11Zm-56.45 19.235h1.149c.805 0 1.48.71 1.48 1.61 0 .874-.675 1.589-1.48 1.605h-1.149Zm.493.383v2.449h.53c.731-.02 1.095-.602 1.095-1.207 0-.621-.364-1.133-.97-1.223Zm4.078-.457c.984 0 1.77.75 1.77 1.683 0 .93-.786 1.68-1.77 1.68-.969 0-1.774-.75-1.774-1.68 0-.933.801-1.683 1.774-1.683Zm0 .402c.71 0 1.297.566 1.297 1.281 0 .692-.586 1.258-1.297 1.258-.696 0-1.282-.566-1.282-1.258 0-.707.575-1.281 1.282-1.281Zm1.918-.328h.476v2.832h.914v.383h-1.39Zm2.925-.094c.364 0 .711.11 1.004.293v.586a1.302 1.302 0 0 0-1.004-.477c-.714 0-1.28.586-1.28 1.301a1.284 1.284 0 0 0 1.28 1.277 1.3 1.3 0 0 0 1.004-.472v.601c-.3.188-.648.29-1.004.293-.968 0-1.773-.77-1.773-1.699 0-.933.805-1.703 1.773-1.703Zm1.645 2.926h1.152v.383H32.84v-3.215h1.644v.363h-1.152v.953h1.152v.383h-1.152Zm2.961.164a.601.601 0 0 1-.184.129c-.054.035-.129.054-.199.074-.02 0-.039 0-.055.016h-.054c-.055 0-.094-.016-.149-.016a.631.631 0 0 1-.144-.074c-.04-.035-.074-.094-.11-.149l-.054-.164v-.09h.015v-.035a.437.437 0 0 1 .13-.238l.218-.164-.11-.164a.267.267 0 0 1-.054-.164v-.074c.02 0 .02-.02.02-.02a.386.386 0 0 1 .109-.184.44.44 0 0 1 .203-.054h.055c.07 0 .164.039.234.093a.318.318 0 0 1 .094.239c0 .09-.02.164-.074.219-.075.07-.13.125-.2.164l.344.421c.02-.039.055-.074.094-.128.035-.04.055-.075.09-.11l.11.11c-.017.035-.056.07-.071.109a.562.562 0 0 1-.094.11l-.016.019s0 .015-.02.015l.255.293h-.219Zm-.422.055c.063 0 .117-.02.168-.055.035-.035.09-.074.125-.11h.02l.02-.02-.403-.456c0 .02 0 .02-.02.02l-.02.019c-.034.016-.054.035-.09.055a.377.377 0 0 0-.073.09c-.016 0-.016.019-.016.035-.02.02-.02.039-.02.058-.019.016-.019.035-.019.035v.055c0 .074.02.129.074.2.063.05.14.077.219.074Zm-.144-1.133v.035c0 .039 0 .074.02.11.015.038.054.073.07.093l.038.035.016.02h.02s.02 0 .02-.02a.394.394 0 0 0 .109-.07.3.3 0 0 0 .07-.13v-.038a.145.145 0 0 0-.055-.125.218.218 0 0 0-.11-.04h-.034c-.036 0-.075 0-.11.04a.095.095 0 0 0-.054.09Zm3.527-2.032a1.885 1.885 0 0 1 1.535.805l-.418.223a1.308 1.308 0 0 0-1.098-.606c-.73 0-1.296.586-1.296 1.297 0 .715.566 1.281 1.296 1.281.602 0 1.079-.292 1.114-.914h-1.04v-.382h1.551v.015c0 1.008-.546 1.719-1.644 1.719-1.098 0-1.793-.766-1.793-1.719 0-.949.809-1.719 1.793-1.719Zm1.371 3.329 1.336-3.215h.309l1.335 3.215h-.511l-.364-.914h-1.226l-.367.914Zm1.063-1.317.437-1.148.422 1.148Zm6.597 1.317 1.317-3.215h.312l1.332 3.215h-.512l-.363-.914h-1.226l-.368.914Zm1.043-1.317.438-1.148.441 1.148Zm5.32 1.317 1.332-3.215h.313l1.336 3.215h-.512l-.387-.914h-1.203l-.367.914Zm1.059-1.317.422-1.148.437 1.148Zm-10.95-1.535c.329.04.438.164.438.496 0 .309-.218.473-.492.473h-.422v-.969Zm.036 1.352h.02c.238 0 .656.058.656.586 0 .421-.364.53-.711.53h.074-.55V57.06Zm-.621 1.5h.824c.566 0 .984-.383.984-.914 0-.418-.253-.73-.62-.86.203-.125.312-.363.312-.656 0-.477-.313-.785-.805-.785-.254-.02-.531 0-.785 0h-.293v3.215Zm3.035-2.852c.313.04.422.164.438.496 0 .309-.22.473-.493.473h-.422v-.969Zm.02 1.352h.015c.238 0 .66.058.66.586 0 .421-.367.53-.715.53h.094-.55V57.06Zm-.622 1.5h.84c.567 0 .97-.383.97-.914 0-.418-.259-.73-.622-.86.219-.125.328-.363.328-.656 0-.477-.328-.785-.805-.785-.273-.02-.527 0-.804 0h-.29v3.215Zm4.864-3.215h.308l2.25 2.375v-2.375h.438v3.215h-.328l-2.215-2.356v2.356h-.453Zm0 0"/></svg>