<svg xmlns="http://www.w3.org/2000/svg" width="80" height="80"><path style="stroke:none;fill-rule:evenodd;fill:transparent;fill-opacity:1" d="M0 0h79.898v79.898H0Zm0 0"/><path style="stroke:none;fill-rule:evenodd;fill:#000;fill-opacity:1" d="M5.371 42.477c.36.261.758.46 1.18.597a4.305 4.305 0 0 0 2.57 0 4.22 4.22 0 0 0 1.184-.597c.367-.262.687-.579.953-.942a4.22 4.22 0 0 0 .793-2.46 4.211 4.211 0 0 0-2.93-4.023 4.245 4.245 0 0 0-2.57-.001 4.182 4.182 0 0 0-2.719 2.734c-.133.418-.2.856-.2 1.29a4.194 4.194 0 0 0 1.74 3.402Zm9.121-24.024H1.176l6.672 15.121Zm0 0"/><path style="stroke:none;fill-rule:evenodd;fill:#000;fill-opacity:1" d="M18.719 54.895a3.121 3.121 0 0 1-3.125 3.125h-.633a3.134 3.134 0 0 1-3.125-3.125l-.004-7.086-7.207-.012v5.351c0 1.09.215 2.176.633 3.184a8.369 8.369 0 0 0 1.8 2.695 8.396 8.396 0 0 0 2.7 1.805 8.455 8.455 0 0 0 3.18.633h4.457c1.09 0 2.175-.219 3.183-.633a8.38 8.38 0 0 0 2.695-1.805 8.317 8.317 0 0 0 1.805-2.695 8.475 8.475 0 0 0 .633-3.184V18.484l-6.996.012Zm53.273-7.086-.004 6.293c0 .406-.082.816-.238 1.195a3.058 3.058 0 0 1-.68 1.012c-.289.293-.632.523-1.011.68a3.213 3.213 0 0 1-1.196.238h-.633a3.213 3.213 0 0 1-1.195-.239 3.074 3.074 0 0 1-1.015-.68 3.15 3.15 0 0 1-.676-1.011 3.152 3.152 0 0 1-.239-1.195l.004-35.606-6.992-.012V60.57H78.72l.004-12.773ZM52.29 41.504a6.872 6.872 0 0 0-1.477-2.184 5.815 5.815 0 0 0-2.074-1.324 6.856 6.856 0 0 0 1.758-1.215c.531-.504.996-1.097 1.313-1.77a5.152 5.152 0 0 0 .476-2.16l.004-7.66c0-.882-.176-1.77-.512-2.586a6.766 6.766 0 0 0-3.652-3.656 6.828 6.828 0 0 0-2.586-.512H31.633v42.137h14.433a6.75 6.75 0 0 0 6.754-6.758c0-3.23-.008-6.457 0-9.687 0-.902-.18-1.793-.53-2.625ZM38.418 22.066l3.66-.011a3.12 3.12 0 0 1 2.207.914c.29.289.524.636.68 1.011.156.38.234.79.238 1.2l.02 8.445c0 1.05-.633 1.996-1.606 2.398a2.676 2.676 0 0 1-.992.2l-4.207.015Zm6.871 33.047a2.61 2.61 0 0 1-1.406 1.407 2.612 2.612 0 0 1-.992.195l-4.473.015V40.023l3.922-.011a3.121 3.121 0 0 1 3.125 3.125l.02 10.984c0 .34-.067.68-.196.992Zm0 0"/></svg>