<svg xmlns="http://www.w3.org/2000/svg" width="80" height="80"><path style="stroke:none;fill-rule:evenodd;fill:transparent;fill-opacity:1" d="M0 0h79.898v79.898H0Zm0 0"/><path style="stroke:none;fill-rule:evenodd;fill:#000;fill-opacity:1" d="M4.848 45.602H3.824c-.086 0-.3 0-.3-.13 0-.085.042-.128.171-.171.938-.297 1.153-.809 1.153-1.535v-7.633c0-.684-.215-1.196-1.153-1.535-.129 0-.172-.086-.172-.13 0-.171.215-.128.301-.128h8.446c1.918 0 3.496 1.535 3.496 3.453 0 1.922-1.579 3.457-3.496 3.457H8.004v2.602c.043.683.254 1.152 1.152 1.449.13.043.168.086.168.172 0 .129-.21.129-.297.129ZM67.8 41.465h2.004L67.8 38.05l-.215-.34-1.79 3.754Zm0-7.168h1.363l5.715 10.066c.172.258.387.512.64.64.215.173.47.216.684.298.086.043.172.086.172.172 0 .129-.215.129-.3.129H71c-.086 0-.34 0-.34-.13 0-.085.082-.128.168-.171.258-.082.426-.211.512-.469.086-.297 0-.469-.211-.852a79.723 79.723 0 0 0-.899-1.835h-4.777l-.039.085c-.043.172-.387.77-.64 1.41-.344.68-.47.852-.387 1.192.043.258.258.387.511.469.086.043.13.086.13.172 0 .129-.212.129-.298.129h-2.347c-.082 0-.297 0-.297-.13 0-.085.043-.128.168-.171.215-.082.469-.125.684-.297.257-.129.468-.383.64-.64l.297-.641 3.242-6.782-.469-.808c-.425-.684-.851-1.11-1.32-1.367-.215-.125-.43-.125-.64-.211-.13-.043-.172-.086-.13-.172 0-.086.087-.043.13-.086ZM55.047 45.559h.172c7.847 0 7.761-11.22 0-11.22h-6.442c-.129 0-.34-.042-.34.13 0 .043.086.129.172.129.938.297 1.149.808 1.192 1.449v7.805c-.043.683-.254 1.152-1.192 1.449-.086.043-.172.086-.172.172 0 .129.215.129.34.129h4.137v-.043Zm0-10.407c1.195 0 2.176.98 2.176 2.172v5.207c0 1.192-.98 2.172-2.176 2.172h-2.133v-9.55Zm-16.25 6.313H40.8l-2.004-3.414-.211-.34-1.793 3.754Zm0-7.168h1.41l5.715 10.066c.129.258.34.512.598.64.21.173.468.216.722.298.086.043.172.086.172.172 0 .129-.258.129-.34.129h-5.078c-.082 0-.297 0-.297-.13 0-.085.043-.128.168-.171.215-.082.43-.211.473-.469.082-.297 0-.469-.172-.852-.3-.64-.64-1.238-.938-1.835h-4.777l-.043.085c-.043.172-.344.77-.64 1.41-.297.68-.47.852-.383 1.192.086.258.254.387.511.469.086.043.172.086.172.172 0 .129-.215.129-.343.129h-2.301c-.086 0-.344 0-.344-.13 0-.085.086-.128.172-.171.254-.082.469-.125.723-.297.214-.129.472-.383.597-.64l.301-.641 3.285-6.782-.472-.808c-.426-.684-.895-1.11-1.32-1.367-.259-.125-.427-.125-.684-.211-.086-.043-.172-.086-.13-.172.044-.086.13-.043.173-.086Zm-14.074 7.465c.98.34 2.175.425 3.113.129l3.71 3.199.302.254c.043.043.043.086.043.129 0 .129-.215.129-.301.129h-3.922l-2.945-2.43-2.387-1.922v2.645c.043.64.297 1.109 1.191 1.41.086.043.13.082.13.168 0 .129-.216.129-.298.129h-5.164c-.125 0-.34 0-.34-.13 0-.085.086-.128.172-.167 1.024-.344 1.153-.856 1.192-1.664v-7.38c-.043-.769-.168-1.324-1.192-1.663-.086 0-.172-.086-.172-.13 0-.171.215-.128.34-.128h8.32a3.443 3.443 0 0 1 3.454 3.453 3.445 3.445 0 0 1-3.453 3.457h-2.688c.129.254.426.34.68.469.086 0 .129.043.215.043Zm0-1.32h.34c1.109 0 2.046-1.196 2.046-2.731 0-1.492-.937-2.688-2.047-2.688h-2.726v5.418Zm-14.29-5.419h-2.43v5.418h2.817c1.149 0 2.047-1.195 2.047-2.73 0-1.492-.898-2.688-2.047-2.688Zm0 0"/></svg>