<svg xmlns="http://www.w3.org/2000/svg" width="80" height="80"><path style="stroke:none;fill-rule:evenodd;fill:transparent;fill-opacity:1" d="M0 0h79.898v79.898H0Zm0 0"/><path style="stroke:none;fill-rule:evenodd;fill:#000;fill-opacity:1" d="M3.523 15.523h7.727l4.281 29.442 4.176-29.442h52.938l-1.778 8.457H26.184l-6.79 38.735h-7.726Zm0 0"/><path style="stroke:none;fill-rule:evenodd;fill:#000;fill-opacity:1" d="M74 51.754c.21 4.594-2.402 11.59-8.145 11.59-6.68 0-8.14-8.25-8.14-11.696h5.426c0 1.985 1.672 3.97 2.925 3.97 1.254 0 2.508-1.567 2.508-2.61 0-1.047-.418-2.613-2.402-3.969-6.477-3.863-7.938-8.352-7.938-12.215-.207-4.594 1.985-11.383 7.727-11.383s7.309 8.04 7.309 11.383h-5.114c0-1.879-1.254-3.238-2.508-3.238-1.253 0-2.09 1.254-2.09 2.297 0 1.043.212 1.984 2.196 3.34C68.469 40.477 74 44.55 74 51.753Zm.313 8.875c.44 0 .867.176 1.183.488a1.687 1.687 0 0 1 0 2.375 1.66 1.66 0 0 1-1.183.492 1.671 1.671 0 0 1-1.684-1.683c0-.926.75-1.672 1.683-1.672v-.39a2.068 2.068 0 1 0-.012 4.135 2.068 2.068 0 0 0 .013-4.136Zm0 0"/><path style="stroke:none;fill-rule:evenodd;fill:#000;fill-opacity:1" d="M73.895 61.527h.543c.214 0 .53 0 .53.29 0 .285-.171.343-.421.335h-.652v.332h.437l.496.95h.508l-.543-.95c.398-.023.613-.195.613-.597 0-.23-.062-.45-.265-.578-.168-.106-.414-.114-.602-.114h-1.082v2.239h.438Zm-45-11.34 2.09-13.574 2.09 13.575Zm-1.25 7.622h6.472l.836 4.906H45.29V43.297l6.367 19.418h5.324V26.59h-5.425v18.379l-6.059-18.38H39.86v33.934L34.012 26.59h-6.055l-6.266 36.125h5.325Zm0 0"/></svg>