<svg width="65" height="43" fill="none" xmlns="http://www.w3.org/2000/svg"><path d="M15.918 25.537v10.63h37.358a1.933 1.933 0 0 0 1.932-1.933v-8.697L35.564 22.96l-19.645 2.577Z" fill="#8B9BA9"/><path d="M51.343 25.022v7.28H15.918v3.865h37.358a1.933 1.933 0 0 0 1.932-1.933v-8.697l-3.865-.515Z" fill="#6C7A88"/><path d="M56.948.07H21.716a1.933 1.933 0 0 0-1.933 1.932v6.022H6.895a3.865 3.865 0 0 0-3.771 3.018L1.66 17.546a23.206 23.206 0 0 0-.565 5.091v13.53h18.687v-10.63h37.165a1.933 1.933 0 0 0 1.932-1.932V2.002A1.933 1.933 0 0 0 56.948.069Z" fill="#FF7E40"/><path d="M64.034 17.238H58.88V13.77h2.577a.966.966 0 1 0 0-1.933H58.88V8.369h3.866a.966.966 0 1 0 0-1.933H58.88V2.968h5.154a.966.966 0 1 0 0-1.932H58.62a1.93 1.93 0 0 0-1.672-.967h-1.933v21.603H19.783V8.024h-3.865v17.513H13.02c-2.817 0-5.38 1.104-7.284 2.9h-4.64v7.73h18.688v-10.63h37.165a1.93 1.93 0 0 0 1.672-.966h4.126a.966.966 0 1 0 0-1.933H58.88V19.17h5.154a.966.966 0 1 0 0-1.933Z" fill="#FF6344"/><path d="M.966 36.166H8.04v-3.865H.966a.966.966 0 0 0-.966.966V35.2c0 .534.433.966.966.966Z" fill="#8B9BA9"/><path d="M15.917 11.89H6.664l-1.838 8.17h11.091v-8.17Z" fill="#9DC6FB"/><path d="M12.283 16.195H5.695l-.869 3.865h11.091v-8.17h-3.634v4.305Z" fill="#80B4FB"/><path d="M45.868 42.93a6.764 6.764 0 1 0 0-13.528 6.764 6.764 0 0 0 0 13.529Z" fill="#4D5967"/><path d="M47.25 29.545a3.866 3.866 0 0 0 .667 4.571l-4.1 4.1a3.866 3.866 0 0 0-4.57-.667c.64 3.069 3.365 5.381 6.62 5.381a6.772 6.772 0 0 0 6.765-6.764c0-3.256-2.313-5.981-5.382-6.621Z" fill="#35404A"/><path d="M45.868 39.065a2.899 2.899 0 1 0 0-5.797 2.899 2.899 0 0 0 0 5.797Z" fill="#FFF9EB"/><path d="M13.018 42.93a6.764 6.764 0 1 0 0-13.528 6.764 6.764 0 0 0 0 13.529Z" fill="#4D5967"/><path d="M14.4 29.545a3.866 3.866 0 0 0 .668 4.571l-4.1 4.1a3.866 3.866 0 0 0-4.572-.667c.64 3.069 3.366 5.381 6.622 5.381a6.772 6.772 0 0 0 6.764-6.764c0-3.256-2.313-5.981-5.381-6.621Z" fill="#35404A"/><path d="M13.018 39.065a2.899 2.899 0 1 0 0-5.797 2.899 2.899 0 0 0 0 5.797ZM29.561 10.871v.966h1.224a.966.966 0 1 1 0 1.933h-1.224v1.932a.966.966 0 1 1-1.932 0V9.905c0-.534.432-.966.966-.966h2.963a.966.966 0 1 1 0 1.932H29.56ZM38.77 15.022a.966.966 0 0 1-1.371 1.36l-1.633-1.646h-.515v.966a.966.966 0 1 1-1.933 0V9.905c0-.534.433-.966.966-.966h1.885c1.589 0 2.882 1.3 2.882 2.898 0 .943-.45 1.782-1.146 2.312l.866.873Zm-1.652-3.185a.96.96 0 0 0-.95-.966h-.917v1.932h.918a.96.96 0 0 0 .95-.966ZM45.04 15.702a.966.966 0 0 1-.966.966H41.11a.966.966 0 0 1-.966-.966V9.904c0-.533.432-.966.966-.966h2.963a.966.966 0 1 1 0 1.933h-1.997v.966H43.3a.966.966 0 1 1 0 1.933h-1.224v.966h1.997c.533 0 .966.432.966.966ZM51.034 15.702a.966.966 0 0 1-.966.966h-2.963a.966.966 0 0 1-.966-.966V9.904c0-.533.432-.966.966-.966h2.963a.966.966 0 1 1 0 1.933H48.07v.966h1.224a.966.966 0 1 1 0 1.933H48.07v.966h1.997c.533 0 .966.432.966.966Z" fill="#FFF9EB"/></svg>