<svg width="65" height="65" fill="none" xmlns="http://www.w3.org/2000/svg"><g clip-path="url(#a)"><path d="M64.652 24.283a1.288 1.288 0 0 0-.947-.395h-3.898A31.349 31.349 0 0 0 49.35 7.163 31.26 31.26 0 0 0 29.469 0a.65.65 0 0 0-.341.088.638.638 0 0 0-.27.77l3.481 9.288c.093.248.33.412.595.412 8.23 0 15.442 5.527 17.666 13.33h-3.348c-.356 0-.704.135-.947.395a1.272 1.272 0 0 0-.054 1.688l8.252 9.902a1.27 1.27 0 0 0 1.951 0l8.252-9.902c.4-.48.402-1.198-.054-1.688Z" fill="#507BE9"/><path d="M28.818 29.834c7.713 0 13.965-6.252 13.965-13.965 0-7.712-6.252-13.965-13.965-13.965-7.712 0-13.965 6.253-13.965 13.965 0 7.713 6.253 13.965 13.965 13.965Z" fill="#FFEE78"/><path d="M42.783 15.87c0-7.713-6.252-13.966-13.965-13.966v27.93c7.713 0 13.965-6.252 13.965-13.965Z" fill="#FCD232"/><path d="M28.818 31.738c-8.75 0-15.869-7.119-15.869-15.869S20.07 0 28.82 0s15.869 7.119 15.869 15.87c0 8.75-7.12 15.868-15.87 15.868Zm0-27.93c-6.65 0-12.06 5.411-12.06 12.061s5.41 12.06 12.06 12.06 12.06-5.41 12.06-12.06-5.41-12.06-12.06-12.06Z" fill="#FCD232"/><path d="M40.879 15.87c0 6.65-5.41 12.06-12.06 12.06v3.808c8.75 0 15.869-7.119 15.869-15.869S37.568 0 28.818 0v3.809c6.65 0 12.06 5.41 12.06 12.06Z" fill="#F7B90F"/><path d="M33.897 19.043c0-2.8-2.279-5.078-5.079-5.078a1.271 1.271 0 1 1 1.244-1.525 1.905 1.905 0 0 0 3.733-.759 5.09 5.09 0 0 0-3.072-3.69v-.374a1.904 1.904 0 0 0-3.809 0v.372a5.085 5.085 0 0 0-3.174 4.706c0 2.8 2.278 5.078 5.078 5.078a1.27 1.27 0 1 1-1.244 1.525 1.905 1.905 0 0 0-3.732.759 5.091 5.091 0 0 0 3.072 3.69v.374a1.904 1.904 0 0 0 3.808 0v-.372a5.085 5.085 0 0 0 3.175-4.706Z" fill="#FCD232"/><path d="M28.818 13.965v3.808a1.27 1.27 0 0 1 0 2.54v5.712a1.904 1.904 0 0 0 1.905-1.904v-.372a5.085 5.085 0 0 0 3.174-4.706c0-2.8-2.279-5.078-5.079-5.078ZM30.062 12.44a1.905 1.905 0 0 0 3.732-.758 5.09 5.09 0 0 0-3.071-3.691v-.374a1.904 1.904 0 0 0-1.905-1.904v5.713c.602 0 1.125.426 1.244 1.014Z" fill="#F7B90F"/><path d="M64.196 44.554a4.443 4.443 0 0 0-6.188-1.092L44.386 53a3.174 3.174 0 0 1-1.82.574H32.5v8.887h10.866a9.52 9.52 0 0 0 5.462-1.722l14.277-9.997a4.443 4.443 0 0 0 1.091-6.188Z" fill="#FABE8C"/><path d="M44.386 53a3.174 3.174 0 0 1-1.82.574l-10.066-.78v4.589h10.283c4.55 0 8.252-3.702 8.252-8.252 0-.257-.013-.51-.036-.76L44.386 53Z" fill="#E6A578"/><path d="M64.196 44.554a4.443 4.443 0 0 0-6.188-1.092l-11.456 8.022a4.443 4.443 0 0 0-3.769-6.797h-10.79l-1.243-.931a14.475 14.475 0 0 0-8.631-2.877c-2.607 0-5.166.709-7.4 2.05l-3.384 2.03a1.904 1.904 0 0 0-.925 1.633v13.965c0 1.051.853 1.904 1.905 1.904h31.051a9.52 9.52 0 0 0 5.462-1.722l14.277-9.997a4.443 4.443 0 0 0 1.091-6.188Z" fill="#FFD2AA"/><path d="M32.5 62.46h10.866a9.52 9.52 0 0 0 5.462-1.721l14.277-9.997a4.443 4.443 0 1 0-5.097-7.28l-11.456 8.022a4.443 4.443 0 0 0-3.768-6.797H32.5v17.774Z" fill="#FABE8C"/><path d="m50.999 48.37-4.447 3.114c-.028.044-.055.088-.084.131a4.439 4.439 0 0 1-3.685 1.96h-13.33a1.904 1.904 0 0 0 0 3.808h13.33c4.55 0 8.252-3.702 8.252-8.252 0-.257-.013-.51-.036-.76Z" fill="#FABE8C"/><path d="M12.315 65H1.905A1.904 1.904 0 0 1 0 63.096V41.514c0-1.052.853-1.905 1.904-1.905h10.41c1.052 0 1.905.853 1.905 1.905v21.582A1.904 1.904 0 0 1 12.315 65Z" fill="#6496F7"/><path d="m50.999 48.37-4.447 3.114c-.028.044-.055.088-.084.131a4.439 4.439 0 0 1-3.685 1.96H32.5v3.808h10.283c4.55 0 8.252-3.702 8.252-8.252 0-.257-.013-.51-.036-.76Z" fill="#E6A578"/></g><defs><clipPath id="a"><path fill="#fff" d="M0 0h65v65H0z"/></clipPath></defs></svg>