<svg width="49" height="65" fill="none" xmlns="http://www.w3.org/2000/svg"><path d="M7.944 36.539.104 58.772l7.888-.077 9.729-22.156H7.944Z" fill="#80AAFF"/><path d="m17.72 36.539-6.122 23.395L17.764 65l6.735-19.706v-8.755h-6.78Z" fill="#80AAFF"/><path d="M15.591 36.539 7.992 58.695l2.074-.02 1.533 1.259 8.024-23.395H15.59Z" fill="#EAF1FF"/><path d="m41.056 36.539 7.84 22.233-7.888-.077-9.729-22.156h9.777Z" fill="#6680FF"/><path d="m31.279 36.539 6.122 23.395L31.235 65 24.5 45.294v-8.755h6.779Z" fill="#6680FF"/><path d="m33.408 36.539 7.6 22.156-2.075-.02-1.532 1.259-8.024-23.395h4.031Z" fill="#B3CCFF"/><path d="m24.498 1.906-1.355 21.142 1.355 20.337c11.455 0 20.74-9.285 20.74-20.74 0-11.453-9.285-20.739-20.74-20.739Z" fill="#EAF1FF"/><path d="M3.76 22.646c0 11.454 9.285 20.74 20.74 20.74V1.905c-11.455 0-20.74 9.286-20.74 20.74Z" fill="#F9F9F9"/><path d="M47.145 22.646C47.145 10.16 36.985 0 24.498 0l-1.355 1.356 1.355 2.457c10.385 0 18.833 8.449 18.833 18.833 0 10.385-8.448 18.833-18.833 18.833l-1.355 1.907 1.355 1.906c12.488 0 22.647-10.159 22.647-22.646Z" fill="#FDAE02"/><path d="M24.5 41.48c-10.385 0-18.833-8.45-18.833-18.834S14.115 3.813 24.5 3.813V0C12.012 0 1.854 10.159 1.854 22.646S12.013 45.292 24.5 45.292V41.48Z" fill="#FDCB02"/><path d="m35.898 15.095-5.937 1.94-5.46-4.619-1.357 9.276 1.356 9.576h11.398V15.095Z" fill="#FD9002"/><path d="m24.5 12.416-5.46 4.62-5.936-1.941v16.173H24.5V12.416Z" fill="#FDAE02"/></svg>