<svg width="65" height="65" fill="none" xmlns="http://www.w3.org/2000/svg"><path d="m61.256 24.086.972-1.755a.967.967 0 0 0-1.534-1.145C56.456 8.606 44.624.003 31.164.003c-8.325 0-16.15 3.242-22.036 9.128C3.242 15.017 0 22.842 0 31.166c0 7.085 2.317 13.762 6.701 19.308 4.252 5.38 10.235 9.256 16.848 10.917a24.322 24.322 0 0 0 4.556.677.967.967 0 0 0 .058-1.932 22.421 22.421 0 0 1-4.143-.62C11.016 56.25 1.934 44.592 1.934 31.166c0-16.117 13.112-29.23 29.23-29.23 12.585 0 23.654 8.019 27.66 19.757a.966.966 0 0 0-.636 1.797l1.727.957c.051.031.386.223.79.094a.984.984 0 0 0 .551-.455Z" fill="#D3CDBF"/><path d="M47.61 10.1 10.227 47.483a.967.967 0 0 0 1.367 1.368l37.383-37.384A.967.967 0 0 0 47.61 10.1Z" fill="#D3CDBF"/><path d="M12.372 16.435c-3.964 0-5.31 5.159-3.22 5.159a.967.967 0 0 0 .966-.967 2.256 2.256 0 0 1 2.253-2.253c2.073 0 3.047 2.584 1.48 3.952l-5.338 4.665c-.67.586-.255 1.695.636 1.695h6.445a.971.971 0 0 0 .967-.972.967.967 0 0 0-.967-.967h-3.86l3.393-2.96c2.904-2.535 1.113-7.352-2.755-7.352ZM26.291 24.169h-1.606l-.005-6.766a.967.967 0 0 0-1.934 0v6.766h-3.468c.02-.058 1.6-4.593 1.615-4.651.343-1.305-1.435-1.77-1.831-.627l-2.06 5.933a.967.967 0 0 0 .913 1.284h4.831c0 1.655-.083 1.927.284 2.295.609.608 1.655.172 1.655-.686v-1.61h1.606a.967.967 0 0 0 .967-.966.966.966 0 0 0-.967-.972ZM42 32.357a.966.966 0 0 0-.822-.457h-5.921a.966.966 0 1 0 0 1.931h4.36l-4.455 8.923a.966.966 0 0 0 1.729.862l5.15-10.32a.965.965 0 0 0-.042-.939Z" fill="#46525E"/><path d="M56.5 27.325a3.5 3.5 0 0 0-2.874 3.445v3.178a3.502 3.502 0 0 0 2.875 3.446l.387.07C55.126 46.921 47.87 54.47 38.57 56.658a3.502 3.502 0 0 0-3.47-3.029h-4.2a3.502 3.502 0 0 0-3.469 3.029c-.688 5.046 3.193 8.568 7.415 8.327 16.272-.931 29.29-13.986 30.144-30.295.232-4.437-3.644-8.246-8.49-7.365Z" fill="#6C7A88"/><path d="M34.846 64.984C51.118 64.054 64.136 51 64.99 34.69a7.139 7.139 0 0 0-.849-3.774c-1.65.37-2.92 1.8-3.013 3.572-.752 14.364-12.145 25.814-26.502 26.636a3.868 3.868 0 0 0-3.556 3.026 7.13 7.13 0 0 0 3.776.834Z" fill="#596775"/></svg>